<svg xmlns="http://www.w3.org/2000/svg" viewBox="0 0 101.25 72.64"><defs><style>.cls-1{fill:#5d58c3;}.cls-2{fill:#7c92e3;}</style></defs><g id="OBJECTS"><polygon class="cls-1" points="22.83 10.24 37.33 1.97 37.33 21.51 22.83 27.36 22.83 10.24"/><polygon class="cls-2" points="51.67 14.48 51.67 28.03 33.09 35.71 37.33 38.3 37.33 51.14 3.76 35.84 51.67 14.48"/><polygon class="cls-1" points="22.83 61.98 37.33 69.83 37.33 51.14 22.83 44.53 22.83 61.98"/><polygon class="cls-1" points="64.58 1.78 79.41 10.2 79.41 27.78 64.58 21.32 64.58 1.78"/><polygon class="cls-2" points="64.58 33.74 64.58 21.32 98.31 36.01 50.07 57.18 50.07 44.53 69.96 36.13 64.58 33.74"/><polygon class="cls-1" points="64.58 70.54 79.41 62.12 79.41 44.31 64.58 50.81 64.58 70.54"/></g></svg>