<svg xmlns="http://www.w3.org/2000/svg" viewBox="0 0 560.34 78.11"><defs><style>.cls-1{fill:#5d58c3;}.cls-2{fill:#7c92e3;}</style></defs><g id="OBJECTS"><path class="cls-1" d="M95.07,71.1V6.5H143V17.43H108.12V31.75h32.43V42.63H108.12V60.22h36.09V71.1Z"/><path class="cls-1" d="M152.73,71.1V7h13V60.22h32.44V71.1Z"/><path class="cls-1" d="M205,71.1V7h13V60.22h32.43V71.1Z"/><path class="cls-1" d="M301.92,41.13a41.32,41.32,0,0,1-3.51,15,36.69,36.69,0,0,1,7.74,4.72,31.06,31.06,0,0,0,8.47-19.75Z"/><path class="cls-1" d="M293.66,58A33.11,33.11,0,0,0,285,56.36V68.59A38.57,38.57,0,0,0,293.66,58Z"/><path class="cls-1" d="M288.11,70.42a31.25,31.25,0,0,0,15.52-7.14,33.29,33.29,0,0,0-6.73-4A42.05,42.05,0,0,1,288.11,70.42Z"/><path class="cls-1" d="M285,41.13V52.91a36.79,36.79,0,0,1,10.23,2,37.91,37.91,0,0,0,3.26-13.76Z"/><path class="cls-1" d="M268.13,56.16a41.11,41.11,0,0,1-3.51-15h-12.7a31,31,0,0,0,8.47,19.75A36.69,36.69,0,0,1,268.13,56.16Z"/><path class="cls-1" d="M281.55,68.59V56.36A33.19,33.19,0,0,0,272.87,58,38.78,38.78,0,0,0,281.55,68.59Z"/><path class="cls-1" d="M281.55,41.13H268.06a37.91,37.91,0,0,0,3.26,13.76,36.79,36.79,0,0,1,10.23-2Z"/><path class="cls-1" d="M262.91,63.28a31.21,31.21,0,0,0,15.52,7.14,41.85,41.85,0,0,1-8.79-11.18A33.29,33.29,0,0,0,262.91,63.28Z"/><path class="cls-1" d="M302.28,15.32a31.36,31.36,0,0,0-14.16-6.05A42,42,0,0,1,296,18.75,33.45,33.45,0,0,0,302.28,15.32Z"/><path class="cls-1" d="M285,38.55h13.49A38.39,38.39,0,0,0,294.39,23a36.85,36.85,0,0,1-9.4,1.71Z"/><path class="cls-1" d="M314.62,38.55A31.41,31.41,0,0,0,305,17.63a37.3,37.3,0,0,1-7.34,4.15,42,42,0,0,1,4.29,16.77Z"/><path class="cls-1" d="M285,11.09V21.25a33.19,33.19,0,0,0,7.66-1.34A38.56,38.56,0,0,0,285,11.09Z"/><path class="cls-1" d="M264.62,38.55a41.8,41.8,0,0,1,4.29-16.77,37.3,37.3,0,0,1-7.34-4.15,31.32,31.32,0,0,0-9.65,20.92Z"/><path class="cls-1" d="M273.88,19.91a33.36,33.36,0,0,0,7.67,1.34V11.09A38.85,38.85,0,0,0,273.88,19.91Z"/><path class="cls-1" d="M281.55,24.69a36.85,36.85,0,0,1-9.4-1.71,38.39,38.39,0,0,0-4.09,15.57h13.49Z"/><path class="cls-1" d="M278.41,9.27a31.37,31.37,0,0,0-14.15,6.05,33.14,33.14,0,0,0,6.31,3.43A42.18,42.18,0,0,1,278.41,9.27Z"/><polygon class="cls-1" points="19.07 12.53 33.57 4.26 33.57 23.8 19.07 29.65 19.07 12.53"/><polygon class="cls-2" points="47.91 16.77 47.91 30.32 29.33 38 33.57 40.59 33.57 53.43 0 38.13 47.91 16.77"/><polygon class="cls-1" points="19.07 64.28 33.57 72.12 33.57 53.43 19.07 46.82 19.07 64.28"/><polygon class="cls-1" points="60.82 4.08 75.65 12.49 75.65 30.07 60.82 23.62 60.82 4.08"/><polygon class="cls-2" points="60.82 36.03 60.82 23.62 94.55 38.3 46.31 59.47 46.31 46.82 66.2 38.43 60.82 36.03"/><polygon class="cls-1" points="60.82 72.83 75.65 64.42 75.65 46.6 60.82 53.11 60.82 72.83"/><path class="cls-1" d="M328.4,71.1V6.5h20.94q11.9,0,15.51,1a16.89,16.89,0,0,1,9.29,6.33q3.75,4.86,3.75,12.58a21.07,21.07,0,0,1-2.16,10,17.8,17.8,0,0,1-5.49,6.37,18.88,18.88,0,0,1-6.76,3.06,75.15,75.15,0,0,1-13.53.92h-8.5V71.1Zm13.05-53.67V35.76h7.14c5.14,0,8.57-.34,10.31-1a8.51,8.51,0,0,0,5.55-8.2,8.32,8.32,0,0,0-2.07-5.81,9,9,0,0,0-5.25-2.87,63.1,63.1,0,0,0-9.38-.44Z"/><path class="cls-1" d="M437.26,71.1H423.08l-5.64-14.67H391.61L386.28,71.1H372.45L397.61,6.5H411.4Zm-24-25.56-8.9-24-8.73,24Z"/><path class="cls-1" d="M471.35,47.35V36.47h28.11V62.2q-4.09,4-11.88,7a43,43,0,0,1-15.75,3A35.28,35.28,0,0,1,454.16,68a27,27,0,0,1-11.32-12.16,39.25,39.25,0,0,1-3.79-17.21,37.16,37.16,0,0,1,4.23-17.93,28.45,28.45,0,0,1,12.38-12q6.21-3.22,15.47-3.22,12,0,18.79,5a22.75,22.75,0,0,1,8.7,13.94l-12.95,2.43a13.65,13.65,0,0,0-5.14-7.52,15.53,15.53,0,0,0-9.4-2.75q-8.55,0-13.6,5.42t-5,16.08q0,11.51,5.11,17.25A17,17,0,0,0,471,61.05a22.45,22.45,0,0,0,8.22-1.6,28.43,28.43,0,0,0,7.07-3.9v-8.2Z"/><path class="cls-1" d="M508.6,71.1V6.5h47.9V17.43H521.64V31.75h32.44V42.63H521.64V60.22h36.09V71.1Z"/></g></svg>